<?xml version="1.0" encoding="UTF-8" standalone="no" ?>
<!DOCTYPE svg PUBLIC "-//W3C//DTD SVG 1.1//EN" "http://www.w3.org/Graphics/SVG/1.1/DTD/svg11.dtd">
<svg xmlns="http://www.w3.org/2000/svg" xmlns:xlink="http://www.w3.org/1999/xlink" version="1.1" width="1280" height="1024" viewBox="0 0 1280 1024" xml:space="preserve">
<desc>Created with Fabric.js 5.3.0</desc>
<defs>
</defs>
<g transform="matrix(1 0 0 1 640 512)" id="background-logo"  >
<rect style="stroke: none; stroke-width: 0; stroke-dasharray: none; stroke-linecap: butt; stroke-dashoffset: 0; stroke-linejoin: miter; stroke-miterlimit: 4; fill: rgb(255,255,255); fill-opacity: 0; fill-rule: nonzero; opacity: 1;"  paint-order="stroke"  x="-640" y="-512" rx="0" ry="0" width="1280" height="1024" />
</g>
<g transform="matrix(1.5336165503861876 0 0 1.5336165503861878 217.33435153583622 512.2691754984733)" id="logo-logo"  >
<g style=""  paint-order="stroke"   >
		<g transform="matrix(2.853865343220678 0 0 -2.853865343220678 0 0)"  >
<path style="stroke: none; stroke-width: 1; stroke-dasharray: none; stroke-linecap: butt; stroke-dashoffset: 0; stroke-linejoin: miter; stroke-miterlimit: 4; fill: rgb(75,73,172); fill-rule: nonzero; opacity: 1;"  paint-order="stroke"  transform=" translate(-76.97149999999999, -81.8125)" d="M 76.436 119.722 L 76.436 112.655 C 76.436 112.359 76.676 112.118 76.97300000000001 112.118 L 76.97300000000001 112.118 C 77.26900000000002 112.118 77.50900000000001 112.359 77.50900000000001 112.655 L 77.50900000000001 112.655 L 77.50900000000001 119.72200000000001 C 77.50900000000001 120.01800000000001 77.26900000000002 120.25900000000001 76.97300000000001 120.25900000000001 L 76.97300000000001 120.25900000000001 C 76.67600000000002 120.25900000000001 76.436 120.01800000000001 76.436 119.72200000000001 M 69.84100000000001 119.23800000000001 C 69.55600000000001 119.15500000000002 69.39300000000001 118.85700000000001 69.47600000000001 118.57200000000002 L 69.47600000000001 118.57200000000002 L 71.46600000000001 111.78800000000001 C 71.53500000000001 111.55400000000002 71.74900000000001 111.403 71.98100000000001 111.403 L 71.98100000000001 111.403 C 72.031 111.403 72.08200000000001 111.409 72.132 111.424 L 72.132 111.424 C 72.417 111.507 72.58 111.80600000000001 72.49600000000001 112.09 L 72.49600000000001 112.09 L 70.507 118.875 C 70.438 119.108 70.224 119.261 69.99300000000001 119.261 L 69.99300000000001 119.261 C 69.94300000000001 119.261 69.89200000000001 119.253 69.84100000000001 119.238 M 83.43900000000001 118.875 L 81.44900000000001 112.09 C 81.36500000000001 111.806 81.528 111.507 81.81400000000001 111.424 L 81.81400000000001 111.424 C 81.86300000000001 111.409 81.914 111.403 81.96400000000001 111.403 L 81.96400000000001 111.403 C 82.19600000000001 111.403 82.41000000000001 111.554 82.48000000000002 111.78800000000001 L 82.48000000000002 111.78800000000001 L 84.46900000000002 118.57200000000002 C 84.55200000000002 118.85700000000001 84.38900000000002 119.15500000000002 84.10500000000002 119.23800000000001 L 84.10500000000002 119.23800000000001 C 84.05400000000002 119.25300000000001 84.00300000000001 119.26000000000002 83.95300000000002 119.26000000000002 L 83.95300000000002 119.26000000000002 C 83.72100000000002 119.26000000000002 83.50700000000002 119.10900000000002 83.43900000000002 118.87500000000001 M 89.91800000000002 116.07900000000001 L 86.09700000000002 110.137 C 85.93600000000002 109.887 86.00800000000002 109.555 86.25800000000002 109.395 L 86.25800000000002 109.395 C 86.34800000000003 109.33699999999999 86.44800000000002 109.31 86.54800000000003 109.31 L 86.54800000000003 109.31 C 86.72400000000003 109.31 86.89700000000003 109.397 86.99900000000002 109.556 L 86.99900000000002 109.556 L 90.82100000000003 115.499 C 90.98100000000002 115.74799999999999 90.90900000000002 116.08 90.66000000000003 116.24 L 90.66000000000003 116.24 C 90.57000000000002 116.298 90.46900000000002 116.326 90.37000000000002 116.326 L 90.37000000000002 116.326 C 90.19300000000001 116.326 90.02100000000002 116.23899999999999 89.91800000000002 116.079 M 63.285000000000025 116.24 C 63.03600000000002 116.08 62.96400000000003 115.74799999999999 63.124000000000024 115.499 L 63.124000000000024 115.499 L 66.94600000000003 109.556 C 67.04800000000003 109.39699999999999 67.22100000000003 109.31 67.39800000000002 109.31 L 67.39800000000002 109.31 C 67.49700000000003 109.31 67.59800000000003 109.337 67.68800000000003 109.395 L 67.68800000000003 109.395 C 67.93700000000003 109.55499999999999 68.00900000000003 109.887 67.84900000000003 110.137 L 67.84900000000003 110.137 L 64.02700000000003 116.07900000000001 C 63.92400000000003 116.239 63.75200000000003 116.32600000000001 63.57500000000003 116.32600000000001 L 63.57500000000003 116.32600000000001 C 63.476000000000035 116.32600000000001 63.37500000000003 116.298 63.28500000000003 116.24000000000001 M 57.839000000000034 111.522 C 57.644000000000034 111.298 57.668000000000035 110.95800000000001 57.893000000000036 110.76400000000001 L 57.893000000000036 110.76400000000001 L 63.235000000000035 106.13400000000001 C 63.33700000000003 106.04600000000002 63.46200000000003 106.00300000000001 63.586000000000034 106.00300000000001 L 63.586000000000034 106.00300000000001 C 63.73600000000003 106.00300000000001 63.88600000000003 106.06600000000002 63.99200000000003 106.18800000000002 L 63.99200000000003 106.18800000000002 C 64.18600000000004 106.41200000000002 64.16200000000003 106.75100000000002 63.93800000000003 106.94500000000002 L 63.93800000000003 106.94500000000002 L 58.59600000000003 111.57600000000002 C 58.49500000000003 111.66400000000002 58.37000000000003 111.70700000000002 58.24500000000003 111.70700000000002 L 58.24500000000003 111.70700000000002 C 58.095000000000034 111.70700000000002 57.945000000000036 111.64400000000002 57.839000000000034 111.52200000000002 M 95.34900000000003 111.57600000000002 L 90.00700000000003 106.94500000000002 C 89.78300000000003 106.75100000000002 89.75900000000003 106.41200000000002 89.95300000000003 106.18800000000002 L 89.95300000000003 106.18800000000002 C 90.05900000000003 106.06600000000002 90.20900000000003 106.00300000000001 90.35900000000004 106.00300000000001 L 90.35900000000004 106.00300000000001 C 90.48300000000003 106.00300000000001 90.60800000000003 106.04600000000002 90.71000000000004 106.13400000000001 L 90.71000000000004 106.13400000000001 L 96.05300000000004 110.76400000000001 C 96.27700000000004 110.95800000000001 96.30100000000004 111.29800000000002 96.10700000000004 111.522 L 96.10700000000004 111.522 C 96.00000000000004 111.644 95.85100000000004 111.706 95.70000000000005 111.706 L 95.70000000000005 111.706 C 95.57600000000005 111.706 95.45100000000005 111.663 95.34900000000005 111.57600000000001 M 73.71500000000005 109.62800000000001 C 73.24100000000004 109.62800000000001 72.85800000000005 109.24400000000001 72.85800000000005 108.77000000000001 L 72.85800000000005 108.77000000000001 L 72.85800000000005 99.058 L 63.127000000000045 99.058 C 62.654000000000046 99.058 62.270000000000046 98.674 62.270000000000046 98.20100000000001 L 62.270000000000046 98.20100000000001 L 62.270000000000046 91.686 C 62.270000000000046 91.21100000000001 62.654000000000046 90.828 63.127000000000045 90.828 L 63.127000000000045 90.828 L 72.85800000000005 90.828 L 72.85800000000005 84.777 C 73.22600000000004 84.57300000000001 73.57300000000005 84.373 73.89900000000004 84.18 L 73.89900000000004 84.18 C 75.49800000000005 83.22800000000001 76.56500000000004 82.405 76.97300000000004 82.07600000000001 L 76.97300000000004 82.07600000000001 C 77.46300000000004 82.47000000000001 78.90800000000004 83.57100000000001 81.08700000000005 84.75600000000001 L 81.08700000000005 84.75600000000001 L 81.08700000000005 90.82800000000002 L 90.81400000000005 90.82800000000002 C 91.28800000000005 90.82800000000002 91.67100000000005 91.21100000000001 91.67100000000005 91.68600000000002 L 91.67100000000005 91.68600000000002 L 91.67100000000005 98.20100000000002 C 91.67100000000005 98.67400000000002 91.28800000000005 99.05800000000002 90.81400000000005 99.05800000000002 L 90.81400000000005 99.05800000000002 L 81.08700000000005 99.05800000000002 L 81.08700000000005 108.77000000000002 C 81.08700000000005 109.24400000000003 80.70400000000005 109.62800000000003 80.23000000000005 109.62800000000003 L 80.23000000000005 109.62800000000003 z M 99.29200000000004 105.72600000000001 L 92.86600000000004 102.79200000000002 C 92.59600000000005 102.66800000000002 92.47800000000004 102.35000000000002 92.60000000000004 102.08100000000002 L 92.60000000000004 102.08100000000002 C 92.69000000000004 101.88300000000002 92.88500000000003 101.76700000000002 93.08900000000004 101.76700000000002 L 93.08900000000004 101.76700000000002 C 93.16300000000004 101.76700000000002 93.23900000000005 101.78200000000002 93.31200000000004 101.81500000000003 L 93.31200000000004 101.81500000000003 L 99.73800000000004 104.74900000000002 C 100.00800000000004 104.87200000000003 100.12700000000004 105.19000000000003 100.00400000000005 105.46000000000002 L 100.00400000000005 105.46000000000002 C 99.91300000000005 105.65800000000002 99.71900000000005 105.77500000000002 99.51500000000004 105.77500000000002 L 99.51500000000004 105.77500000000002 C 99.44100000000005 105.77500000000002 99.36500000000004 105.75900000000001 99.29200000000004 105.72600000000001 M 53.941 105.46 C 53.818000000000005 105.19 53.937000000000005 104.872 54.207 104.749 L 54.207 104.749 L 60.633 101.815 C 60.706 101.782 60.781000000000006 101.767 60.856 101.767 L 60.856 101.767 C 61.06 101.767 61.255 101.883 61.345 102.08099999999999 L 61.345 102.08099999999999 C 61.467 102.35 61.348 102.66799999999999 61.079 102.79199999999999 L 61.079 102.79199999999999 L 54.652 105.72599999999998 C 54.58 105.75899999999999 54.504 105.77499999999999 54.429 105.77499999999999 L 54.429 105.77499999999999 C 54.226 105.77499999999999 54.032000000000004 105.65799999999999 53.941 105.46 M 101.42500000000001 99.002 L 94.42900000000002 97.997 C 94.13500000000002 97.954 93.93200000000002 97.682 93.97400000000002 97.389 L 93.97400000000002 97.389 C 94.01300000000002 97.122 94.24300000000002 96.929 94.50500000000002 96.929 L 94.50500000000002 96.929 C 94.53100000000002 96.929 94.55600000000003 96.93 94.58200000000002 96.935 L 94.58200000000002 96.935 L 101.57800000000002 97.94 C 101.87100000000002 97.982 102.07400000000001 98.25399999999999 102.03200000000001 98.547 L 102.03200000000001 98.547 C 101.99400000000001 98.815 101.76400000000001 99.00699999999999 101.50200000000001 99.00699999999999 L 101.50200000000001 99.00699999999999 C 101.47600000000001 99.00699999999999 101.45100000000001 99.00599999999999 101.42500000000001 99.002 M 51.913 98.547 C 51.870999999999995 98.25399999999999 52.074 97.982 52.367 97.94 L 52.367 97.94 L 59.363 96.935 C 59.389 96.93 59.414 96.929 59.441 96.929 L 59.441 96.929 C 59.702000000000005 96.929 59.932 97.122 59.971000000000004 97.389 L 59.971000000000004 97.389 C 60.013000000000005 97.682 59.809000000000005 97.954 59.516000000000005 97.997 L 59.516000000000005 97.997 L 52.52 99.002 C 52.494 99.006 52.469 99.00699999999999 52.443000000000005 99.00699999999999 L 52.443000000000005 99.00699999999999 C 52.181000000000004 99.00699999999999 51.95100000000001 98.815 51.913000000000004 98.547 M 93.974 92.497 C 93.932 92.203 94.135 91.931 94.429 91.889 L 94.429 91.889 L 101.425 90.884 C 101.451 90.879 101.476 90.878 101.502 90.878 L 101.502 90.878 C 101.765 90.878 101.994 91.071 102.032 91.338 L 102.032 91.338 C 102.074 91.63199999999999 101.871 91.904 101.578 91.946 L 101.578 91.946 L 94.58200000000001 92.951 C 94.55600000000001 92.955 94.52900000000001 92.957 94.504 92.957 L 94.504 92.957 C 94.242 92.957 94.013 92.764 93.974 92.497 M 59.36300000000001 92.951 L 52.367000000000004 91.946 C 52.074000000000005 91.904 51.871 91.632 51.913000000000004 91.338 L 51.913000000000004 91.338 C 51.952000000000005 91.071 52.181000000000004 90.878 52.443000000000005 90.878 L 52.443000000000005 90.878 C 52.46900000000001 90.878 52.49400000000001 90.879 52.52 90.884 L 52.52 90.884 L 59.516000000000005 91.889 C 59.809000000000005 91.931 60.013000000000005 92.20299999999999 59.971000000000004 92.497 L 59.971000000000004 92.497 C 59.932 92.764 59.703 92.957 59.441 92.957 L 59.441 92.957 C 59.415 92.957 59.389 92.955 59.363 92.951 M 45.542 85.261 L 51.825 49.123999999999995 C 52.745000000000005 49.24999999999999 54.78 49.474999999999994 57.457 49.474999999999994 L 57.457 49.474999999999994 C 62.714 49.474999999999994 70.439 48.59799999999999 76.973 44.339999999999996 L 76.973 44.339999999999996 C 86.823 50.763 99.393 49.495999999999995 102.11699999999999 49.123999999999995 L 102.11699999999999 49.123999999999995 L 108.4 85.261 C 96.921 91.343 86.627 87.773 81.087 84.756 L 81.087 84.756 L 81.087 61.694 L 76.973 54.971000000000004 L 72.858 61.694 L 72.858 84.777 C 71.423 85.565 69.666 86.387 67.658 87.06700000000001 L 67.658 87.06700000000001 C 64.59 88.105 61.545 88.62400000000001 58.537 88.62400000000001 L 58.537 88.62400000000001 C 54.112 88.62400000000001 49.766 87.501 45.542 85.26100000000001 M 82.848 78.59400000000001 C 82.697 78.84800000000001 82.78 79.17800000000001 83.034 79.328 L 83.034 79.328 C 86.161 81.177 94.352 85.02000000000001 102.896 80.795 L 102.896 80.795 C 103.162 80.666 103.272 80.34400000000001 103.14 80.07900000000001 L 103.14 80.07900000000001 C 103.008 79.811 102.686 79.703 102.421 79.83500000000001 L 102.421 79.83500000000001 C 94.34800000000001 83.825 86.558 80.165 83.581 78.40400000000001 L 83.581 78.40400000000001 C 83.496 78.354 83.403 78.33 83.309 78.33 L 83.309 78.33 C 83.127 78.33 82.949 78.422 82.848 78.594 M 50.801 80.079 C 50.669000000000004 80.344 50.78 80.666 51.045 80.79499999999999 L 51.045 80.79499999999999 C 59.59 85.01999999999998 67.78 81.17699999999999 70.907 79.32799999999999 L 70.907 79.32799999999999 C 71.161 79.17799999999998 71.24799999999999 78.84799999999998 71.097 78.594 L 71.097 78.594 C 70.997 78.422 70.818 78.33 70.63199999999999 78.33 L 70.63199999999999 78.33 C 70.53899999999999 78.33 70.44599999999998 78.354 70.35999999999999 78.404 L 70.35999999999999 78.404 C 67.38699999999999 80.16499999999999 59.59399999999999 83.829 51.52099999999999 79.835 L 51.52099999999999 79.835 C 51.44399999999999 79.797 51.362999999999985 79.779 51.28199999999999 79.779 L 51.28199999999999 79.779 C 51.08499999999999 79.779 50.89499999999999 79.889 50.80099999999999 80.079 M 82.63699999999999 72.446 C 82.49399999999999 72.708 82.58299999999998 73.033 82.83999999999999 73.17999999999999 L 82.83999999999999 73.17999999999999 C 85.84299999999999 74.869 93.701 78.386 101.862 74.58699999999999 L 101.862 74.58699999999999 C 102.131 74.46199999999999 102.24499999999999 74.14299999999999 102.11999999999999 73.87499999999999 L 102.11999999999999 73.87499999999999 C 101.99499999999999 73.60699999999999 101.67699999999999 73.48799999999999 101.40799999999999 73.61399999999999 L 101.40799999999999 73.61399999999999 C 93.97599999999998 77.073 86.91699999999999 74.23899999999999 83.37099999999998 72.243 L 83.37099999999998 72.243 C 83.28399999999998 72.196 83.19499999999998 72.175 83.10599999999998 72.175 L 83.10599999999998 72.175 C 82.91999999999997 72.175 82.73699999999998 72.27199999999999 82.63699999999999 72.446 M 51.820999999999984 73.875 C 51.695999999999984 74.143 51.813999999999986 74.462 52.082999999999984 74.587 L 52.082999999999984 74.587 C 60.243999999999986 78.38300000000001 68.10199999999998 74.869 71.10099999999998 73.18 L 71.10099999999998 73.18 C 71.35799999999999 73.033 71.45099999999998 72.70800000000001 71.30399999999999 72.44600000000001 L 71.30399999999999 72.44600000000001 C 71.20799999999998 72.275 71.02499999999999 72.17500000000001 70.83599999999998 72.17500000000001 L 70.83599999999998 72.17500000000001 C 70.74599999999998 72.17500000000001 70.65699999999998 72.19600000000001 70.57399999999998 72.24300000000001 L 70.57399999999998 72.24300000000001 C 67.02799999999998 74.239 59.96899999999998 77.07300000000001 52.533999999999985 73.614 L 52.533999999999985 73.614 C 52.460999999999984 73.57900000000001 52.383999999999986 73.563 52.30899999999998 73.563 L 52.30899999999998 73.563 C 52.10599999999998 73.563 51.91299999999998 73.679 51.820999999999984 73.875 M 52.84399999999999 67.656 C 52.72699999999999 67.92800000000001 52.847999999999985 68.24300000000001 53.12099999999999 68.36 L 53.12099999999999 68.36 C 60.627999999999986 71.645 67.72999999999999 68.929 71.29399999999998 67.015 L 71.29399999999998 67.015 C 71.55499999999998 66.875 71.65499999999999 66.55 71.51199999999999 66.289 L 71.51199999999999 66.289 C 71.41599999999998 66.109 71.23299999999999 66.006 71.03999999999999 66.006 L 71.03999999999999 66.006 C 70.954 66.006 70.868 66.028 70.78599999999999 66.071 L 70.78599999999999 66.071 C 67.394 67.888 60.642 70.479 53.55 67.38 L 53.55 67.38 C 53.479 67.34899999999999 53.406 67.33399999999999 53.333 67.33399999999999 L 53.333 67.33399999999999 C 53.128 67.33399999999999 52.931999999999995 67.45499999999998 52.844 67.65599999999999 M 82.429 66.28899999999999 C 82.29 66.54999999999998 82.386 66.87499999999999 82.648 67.01499999999999 L 82.648 67.01499999999999 C 86.211 68.92599999999999 93.314 71.64499999999998 100.822 68.35999999999999 L 100.822 68.35999999999999 C 101.093 68.24299999999998 101.21900000000001 67.92799999999998 101.09700000000001 67.65599999999999 L 101.09700000000001 67.65599999999999 C 100.97800000000001 67.38399999999999 100.66300000000001 67.25899999999999 100.391 67.38 L 100.391 67.38 C 93.299 70.479 86.548 67.88799999999999 83.156 66.071 L 83.156 66.071 C 83.07400000000001 66.02799999999999 82.98700000000001 66.006 82.902 66.006 L 82.902 66.006 C 82.712 66.006 82.525 66.109 82.429 66.289 M 82.22200000000001 60.124 C 82.08500000000001 60.385000000000005 82.19000000000001 60.71 82.45400000000001 60.846000000000004 L 82.45400000000001 60.846000000000004 C 85.85400000000001 62.585 92.631 65.065 99.78300000000002 62.127 L 99.78300000000002 62.127 C 100.05600000000001 62.013000000000005 100.18800000000002 61.701 100.07400000000001 61.426 L 100.07400000000001 61.426 C 99.962 61.15 99.647 61.022 99.375 61.133 L 99.375 61.133 C 92.62 63.905 86.18 61.544 82.941 59.888 L 82.941 59.888 C 82.866 59.848 82.78 59.83 82.697 59.83 L 82.697 59.83 C 82.50500000000001 59.83 82.315 59.937 82.22200000000001 60.123999999999995 M 53.86900000000001 61.425999999999995 C 53.75300000000001 61.70099999999999 53.88600000000001 62.013 54.162000000000006 62.126999999999995 L 54.162000000000006 62.126999999999995 C 61.31400000000001 65.06099999999999 68.08800000000001 62.584999999999994 71.48700000000001 60.846 L 71.48700000000001 60.846 C 71.75200000000001 60.709999999999994 71.85600000000001 60.385 71.724 60.123999999999995 L 71.724 60.123999999999995 C 71.626 59.937 71.44 59.83 71.244 59.83 L 71.244 59.83 C 71.161 59.83 71.079 59.848 71 59.888 L 71 59.888 C 67.762 61.544 61.322 63.905 54.57 61.132999999999996 L 54.57 61.132999999999996 C 54.503 61.105999999999995 54.434 61.092999999999996 54.366 61.092999999999996 L 54.366 61.092999999999996 C 54.153 61.092999999999996 53.952 61.217 53.869 61.425999999999995 M 82.011 53.940999999999995 C 81.88199999999999 54.208999999999996 81.993 54.526999999999994 82.25699999999999 54.66 L 82.25699999999999 54.66 C 85.48799999999999 56.233999999999995 91.92999999999999 58.488 98.73899999999999 55.88399999999999 L 98.73899999999999 55.88399999999999 C 99.014 55.775999999999996 99.154 55.467999999999996 99.04599999999999 55.18899999999999 L 99.04599999999999 55.18899999999999 C 98.942 54.91299999999999 98.63099999999999 54.773999999999994 98.356 54.88099999999999 L 98.356 54.88099999999999 C 92.245 57.222 86.487 55.525 82.73 53.693 L 82.73 53.693 C 82.655 53.658 82.572 53.64 82.494 53.64 L 82.494 53.64 C 82.297 53.64 82.103 53.751 82.011 53.941 M 54.896 55.189 C 54.788000000000004 55.468 54.927 55.776 55.203 55.884 L 55.203 55.884 C 62.015 58.488 68.453 56.234 71.684 54.660000000000004 L 71.684 54.660000000000004 C 71.949 54.527 72.059 54.209 71.931 53.941 L 71.931 53.941 C 71.838 53.751 71.645 53.64 71.447 53.64 L 71.447 53.64 C 71.369 53.64 71.287 53.658 71.212 53.693 L 71.212 53.693 C 67.459 55.525 61.697 57.217999999999996 55.589000000000006 54.881 L 55.589000000000006 54.881 C 55.526 54.857 55.46 54.845 55.396 54.845 L 55.396 54.845 C 55.179 54.845 54.975 54.977 54.896 55.189 M 102.99199999999999 47.893 L 102.46099999999998 47.988 C 102.32599999999998 48.011 90.07099999999998 50.099 79.74799999999999 44.72 L 79.74799999999999 44.72 C 85.77099999999999 46.061 98.21699999999998 47.992 106.06199999999998 43.366 L 106.06199999999998 43.366 L 114.99599999999998 78.49000000000001 C 114.09099999999998 78.99100000000001 111.50199999999998 80.313 108.69899999999998 80.712 L 108.69899999999998 80.712 z M 38.947 78.49 L 47.88 43.366 C 55.727000000000004 47.992 68.17500000000001 46.06 74.197 44.719 L 74.197 44.719 C 63.867000000000004 50.107 51.616 48.011 51.482 47.988 L 51.482 47.988 L 50.951 47.893 L 45.243 80.712 C 42.436 80.313 39.85 78.992 38.947 78.49 M 79.323 61.516 L 78.15 61.516 L 77.853 80.197 L 77.559 61.516 L 76.386 61.516 L 76.089 80.197 L 75.792 61.516 L 74.618 61.516 L 74.321 80.197 L 74.028 61.516 L 73.805 61.516 L 75.47300000000001 58.789 L 78.46800000000002 58.789 L 80.14000000000001 61.516 L 79.917 61.516 L 79.62 80.197 Z" stroke-linecap="round" />
</g>
</g>
</g>
<g transform="matrix(1.9211538461538462 0 0 1.9211538461538462 803.6714250863843 491.5805647414323)" id="text-logo"  >
<g style=""  paint-order="stroke"   >
		<g transform="matrix(1 0 0 1 0 0)" id="text-logo-path-0"  >
<path style="stroke: none; stroke-width: 0; stroke-dasharray: none; stroke-linecap: butt; stroke-dashoffset: 0; stroke-linejoin: miter; stroke-miterlimit: 4; fill: rgb(75,73,172); fill-rule: nonzero; opacity: 1;"  paint-order="stroke"  transform=" translate(-202.56499999999997, 19.15)" d="M 15.47 -23.2 L 8.31 0 L -0.15 0 L 11.06 -30.57 L 16.4 -30.57 L 15.47 -23.2 Z M 21.27 0 L 14.09 -23.2 L 13.06 -30.57 L 18.46 -30.57 L 29.73 0 L 21.27 0 Z M 21.19 -11.48 L 21.19 -5.12 L 5.5 -5.12 L 5.5 -11.48 L 21.19 -11.48 Z M 75.53 -6.34 L 75.53 0 L 59.38 0 L 59.38 -6.34 L 75.53 -6.34 Z M 62.17 -30.57 L 62.17 0 L 54.28 0 L 54.28 -30.57 L 62.17 -30.57 Z M 73.45 -18.73 L 73.45 -12.62 L 59.38 -12.62 L 59.38 -18.73 L 73.45 -18.73 Z M 75.59 -30.57 L 75.59 -24.21 L 59.38 -24.21 L 59.38 -30.57 L 75.59 -30.57 Z M 99.75 -8.23 L 99.75 -8.23 Q 99.75 -9.05 99.4 -9.68 Q 99.05 -10.31 97.97 -10.93 Q 96.89 -11.55 94.69 -12.28 L 94.69 -12.28 Q 92.71 -12.95 90.84 -13.82 Q 88.98 -14.68 87.49 -15.84 Q 85.99 -17.01 85.11 -18.59 Q 84.23 -20.18 84.23 -22.3 L 84.23 -22.3 Q 84.23 -24.99 85.78 -26.93 Q 87.34 -28.87 90.03 -29.93 Q 92.71 -30.99 96.14 -30.99 L 96.14 -30.99 Q 99.52 -30.99 102.11 -29.85 Q 104.7 -28.7 106.18 -26.56 Q 107.66 -24.42 107.66 -21.44 L 107.66 -21.44 L 99.81 -21.44 Q 99.81 -22.42 99.4 -23.18 Q 98.99 -23.94 98.14 -24.36 Q 97.29 -24.78 95.97 -24.78 L 95.97 -24.78 Q 94.69 -24.78 93.82 -24.42 Q 92.94 -24.06 92.51 -23.48 Q 92.08 -22.91 92.08 -22.19 L 92.08 -22.19 Q 92.08 -21.37 92.76 -20.77 Q 93.43 -20.16 94.62 -19.63 Q 95.82 -19.11 97.4 -18.58 L 97.4 -18.58 Q 100.67 -17.53 102.95 -16.14 Q 105.23 -14.74 106.42 -12.82 Q 107.62 -10.9 107.62 -8.27 L 107.62 -8.27 Q 107.62 -5.48 106.22 -3.54 Q 104.83 -1.6 102.27 -0.59 Q 99.7 0.42 96.24 0.42 L 96.24 0.42 Q 93.85 0.42 91.55 -0.19 Q 89.25 -0.8 87.39 -2.08 Q 85.53 -3.36 84.43 -5.36 Q 83.33 -7.37 83.33 -10.16 L 83.33 -10.16 L 91.22 -10.16 Q 91.22 -8.9 91.53 -8.06 Q 91.83 -7.22 92.46 -6.71 Q 93.09 -6.19 94.04 -5.97 Q 94.98 -5.75 96.24 -5.75 L 96.24 -5.75 Q 97.54 -5.75 98.31 -6.11 Q 99.07 -6.47 99.41 -7.03 Q 99.75 -7.6 99.75 -8.23 Z M 134.36 -10.52 L 142.21 -10.52 Q 142.09 -7.29 140.49 -4.82 Q 138.9 -2.35 136.07 -0.97 Q 133.25 0.42 129.43 0.42 L 129.43 0.42 Q 125.29 0.42 122.35 -1.4 Q 119.41 -3.21 117.87 -6.59 Q 116.32 -9.97 116.32 -14.66 L 116.32 -14.66 L 116.32 -15.89 Q 116.32 -20.6 117.94 -23.98 Q 119.56 -27.36 122.47 -29.18 Q 125.37 -31.01 129.3 -31.01 L 129.3 -31.01 Q 133.37 -31.01 136.16 -29.54 Q 138.94 -28.07 140.46 -25.53 Q 141.98 -22.99 142.25 -19.8 L 142.25 -19.8 L 134.4 -19.8 Q 134.36 -22.19 133.25 -23.37 Q 132.13 -24.54 129.3 -24.54 L 129.3 -24.54 Q 127.6 -24.54 126.5 -23.74 Q 125.4 -22.93 124.86 -21.05 Q 124.32 -19.17 124.32 -15.94 L 124.32 -15.94 L 124.32 -14.66 Q 124.32 -11.4 124.8 -9.52 Q 125.27 -7.64 126.39 -6.84 Q 127.52 -6.05 129.43 -6.05 L 129.43 -6.05 Q 131 -6.05 132.09 -6.51 Q 133.18 -6.97 133.76 -7.96 Q 134.34 -8.94 134.36 -10.52 L 134.36 -10.52 Z M 177.52 -15.73 L 177.52 -14.82 Q 177.52 -10.08 175.79 -6.67 Q 174.06 -3.25 171.01 -1.42 Q 167.97 0.42 164.04 0.42 L 164.04 0.42 Q 160.07 0.42 157.01 -1.42 Q 153.94 -3.25 152.21 -6.67 Q 150.48 -10.08 150.48 -14.82 L 150.48 -14.82 L 150.48 -15.73 Q 150.48 -20.47 152.2 -23.88 Q 153.92 -27.29 156.97 -29.14 Q 160.03 -30.99 164 -30.99 L 164 -30.99 Q 167.92 -30.99 170.98 -29.14 Q 174.03 -27.29 175.78 -23.88 Q 177.52 -20.47 177.52 -15.73 L 177.52 -15.73 Z M 169.52 -14.82 L 169.52 -15.77 Q 169.52 -18.67 168.88 -20.62 Q 168.24 -22.57 167 -23.56 Q 165.76 -24.54 164 -24.54 L 164 -24.54 Q 162.15 -24.54 160.93 -23.56 Q 159.71 -22.57 159.11 -20.62 Q 158.5 -18.67 158.5 -15.77 L 158.5 -15.77 L 158.5 -14.82 Q 158.5 -11.99 159.12 -10.02 Q 159.74 -8.04 160.96 -7.02 Q 162.19 -6 164.04 -6 L 164.04 -6 Q 165.8 -6 167.03 -7.02 Q 168.26 -8.04 168.89 -10.02 Q 169.52 -11.99 169.52 -14.82 L 169.52 -14.82 Z M 207.43 -6.34 L 207.43 0 L 192.06 0 L 192.06 -6.34 L 207.43 -6.34 Z M 194.83 -30.57 L 194.83 0 L 186.96 0 L 186.96 -30.57 L 194.83 -30.57 Z M 230.05 -23.2 L 222.9 0 L 214.43 0 L 225.65 -30.57 L 230.98 -30.57 L 230.05 -23.2 Z M 235.85 0 L 228.67 -23.2 L 227.64 -30.57 L 233.04 -30.57 L 244.31 0 L 235.85 0 Z M 235.77 -11.48 L 235.77 -5.12 L 220.08 -5.12 L 220.08 -11.48 L 235.77 -11.48 Z M 278.94 0 L 272.2 0 L 272.24 -6.34 L 278.94 -6.34 Q 280.93 -6.34 282.3 -7.26 Q 283.66 -8.19 284.37 -10.06 Q 285.09 -11.93 285.09 -14.76 L 285.09 -14.76 L 285.09 -15.83 Q 285.09 -18.64 284.39 -20.5 Q 283.68 -22.36 282.29 -23.28 Q 280.89 -24.21 278.81 -24.21 L 278.81 -24.21 L 272.07 -24.21 L 272.07 -30.57 L 278.81 -30.57 Q 283.01 -30.57 286.23 -28.68 Q 289.46 -26.79 291.28 -23.46 Q 293.11 -20.14 293.11 -15.79 L 293.11 -15.79 L 293.11 -14.76 Q 293.11 -10.44 291.28 -7.1 Q 289.46 -3.76 286.26 -1.88 Q 283.07 0 278.94 0 L 278.94 0 Z M 276.75 -30.57 L 276.75 0 L 268.86 0 L 268.86 -30.57 L 276.75 -30.57 Z M 315.84 -23.2 L 308.68 0 L 300.22 0 L 311.43 -30.57 L 316.76 -30.57 L 315.84 -23.2 Z M 321.63 0 L 314.45 -23.2 L 313.42 -30.57 L 318.82 -30.57 L 330.1 0 L 321.63 0 Z M 321.55 -11.48 L 321.55 -5.12 L 305.87 -5.12 L 305.87 -11.48 L 321.55 -11.48 Z M 362.54 -30.57 L 362.54 0 L 354.64 0 L 354.64 -30.57 L 362.54 -30.57 Z M 374.11 -18.12 L 374.11 -11.78 L 360.33 -11.78 L 360.33 -18.12 L 374.11 -18.12 Z M 375.24 -30.57 L 375.24 -24.21 L 360.33 -24.21 L 360.33 -30.57 L 375.24 -30.57 Z M 405.21 -6.34 L 405.21 0 L 389.07 0 L 389.07 -6.34 L 405.21 -6.34 Z M 391.86 -30.57 L 391.86 0 L 383.97 0 L 383.97 -30.57 L 391.86 -30.57 Z M 403.14 -18.73 L 403.14 -12.62 L 389.07 -12.62 L 389.07 -18.73 L 403.14 -18.73 Z M 405.28 -30.57 L 405.28 -24.21 L 389.07 -24.21 L 389.07 -30.57 L 405.28 -30.57 Z M 391.63 -32 L 395.79 -38.72 L 403.74 -38.72 L 397.78 -32 L 391.63 -32 Z" stroke-linecap="round" />
</g>
</g>
</g>
<g transform="matrix(1.9211538461538462 0 0 1.9211538461538462 810.6776848093357 553.013513337245)" id="tagline-c35c5afa-ca3f-49ec-9e47-9ed905418eb6-logo"  >
<g style=""  paint-order="stroke"   >
		<g transform="matrix(1 0 0 1 5.684342e-14 0)" id="tagline-c35c5afa-ca3f-49ec-9e47-9ed905418eb6-logo-path-0"  >
<path style="stroke: none; stroke-width: 0; stroke-dasharray: none; stroke-linecap: butt; stroke-dashoffset: 0; stroke-linejoin: miter; stroke-miterlimit: 4; fill: rgb(75,73,172); fill-rule: nonzero; opacity: 1;"  paint-order="stroke"  transform=" translate(-206.075, 4.7)" d="M 5.04 -7.55 L 2.71 0 L -0.05 0 L 3.6 -9.95 L 5.34 -9.95 L 5.04 -7.55 Z M 6.92 0 L 4.59 -7.55 L 4.25 -9.95 L 6.01 -9.95 L 9.68 0 L 6.92 0 Z M 6.9 -3.74 L 6.9 -1.67 L 1.79 -1.67 L 1.79 -3.74 L 6.9 -3.74 Z M 17.29 -3.24 L 14.86 -3.24 L 14.86 -5.31 L 17.29 -5.31 Q 17.75 -5.31 18.04 -5.46 Q 18.33 -5.61 18.46 -5.88 Q 18.6 -6.14 18.6 -6.48 L 18.6 -6.48 Q 18.6 -6.85 18.46 -7.17 Q 18.33 -7.49 18.04 -7.69 Q 17.75 -7.88 17.29 -7.88 L 17.29 -7.88 L 15.82 -7.88 L 15.82 0 L 13.25 0 L 13.25 -9.95 L 17.29 -9.95 Q 18.5 -9.95 19.38 -9.5 Q 20.25 -9.05 20.73 -8.27 Q 21.2 -7.49 21.2 -6.49 L 21.2 -6.49 Q 21.2 -5.52 20.73 -4.79 Q 20.25 -4.06 19.38 -3.65 Q 18.5 -3.24 17.29 -3.24 L 17.29 -3.24 Z M 25.34 -9.95 L 29.32 -9.95 Q 30.49 -9.95 31.34 -9.61 Q 32.2 -9.26 32.66 -8.59 Q 33.13 -7.92 33.13 -6.93 L 33.13 -6.93 Q 33.13 -6.04 32.86 -5.47 Q 32.6 -4.89 32.13 -4.52 Q 31.66 -4.16 31.03 -3.9 L 31.03 -3.9 L 30.19 -3.38 L 26.95 -3.38 L 26.93 -5.46 L 29.29 -5.46 Q 29.72 -5.46 30 -5.59 Q 30.28 -5.73 30.42 -6 Q 30.56 -6.27 30.56 -6.67 L 30.56 -6.67 Q 30.56 -7.24 30.25 -7.56 Q 29.93 -7.88 29.32 -7.88 L 29.32 -7.88 L 27.9 -7.88 L 27.9 0 L 25.34 0 L 25.34 -9.95 Z M 30.71 0 L 28.55 -4.38 L 31.27 -4.4 L 33.45 -0.11 L 33.45 0 L 30.71 0 Z M 45.92 -5.12 L 45.92 -4.83 Q 45.92 -3.28 45.36 -2.17 Q 44.8 -1.06 43.8 -0.46 Q 42.81 0.14 41.53 0.14 L 41.53 0.14 Q 40.24 0.14 39.24 -0.46 Q 38.25 -1.06 37.68 -2.17 Q 37.12 -3.28 37.12 -4.83 L 37.12 -4.83 L 37.12 -5.12 Q 37.12 -6.67 37.68 -7.78 Q 38.24 -8.89 39.23 -9.49 Q 40.23 -10.09 41.52 -10.09 L 41.52 -10.09 Q 42.8 -10.09 43.79 -9.49 Q 44.79 -8.89 45.36 -7.78 Q 45.92 -6.67 45.92 -5.12 L 45.92 -5.12 Z M 43.32 -4.83 L 43.32 -5.13 Q 43.32 -6.08 43.11 -6.71 Q 42.9 -7.35 42.5 -7.67 Q 42.1 -7.99 41.52 -7.99 L 41.52 -7.99 Q 40.92 -7.99 40.52 -7.67 Q 40.13 -7.35 39.93 -6.71 Q 39.73 -6.08 39.73 -5.13 L 39.73 -5.13 L 39.73 -4.83 Q 39.73 -3.9 39.93 -3.26 Q 40.13 -2.62 40.53 -2.29 Q 40.93 -1.96 41.53 -1.96 L 41.53 -1.96 Q 42.11 -1.96 42.51 -2.29 Q 42.91 -2.62 43.11 -3.26 Q 43.32 -3.9 43.32 -4.83 L 43.32 -4.83 Z M 52.56 -9.95 L 52.56 0 L 49.99 0 L 49.99 -9.95 L 52.56 -9.95 Z M 56.33 -5.9 L 56.33 -3.83 L 51.84 -3.83 L 51.84 -5.9 L 56.33 -5.9 Z M 56.7 -9.95 L 56.7 -7.88 L 51.84 -7.88 L 51.84 -9.95 L 56.7 -9.95 Z M 65.86 -9.95 L 68.43 -9.95 L 68.43 -3.51 Q 68.43 -2.33 67.94 -1.52 Q 67.45 -0.7 66.56 -0.28 Q 65.68 0.14 64.48 0.14 L 64.48 0.14 Q 63.3 0.14 62.4 -0.28 Q 61.5 -0.7 61 -1.52 Q 60.5 -2.33 60.5 -3.51 L 60.5 -3.51 L 60.5 -9.95 L 63.08 -9.95 L 63.08 -3.51 Q 63.08 -2.94 63.24 -2.59 Q 63.4 -2.24 63.71 -2.08 Q 64.02 -1.93 64.48 -1.93 L 64.48 -1.93 Q 64.95 -1.93 65.25 -2.08 Q 65.56 -2.24 65.71 -2.59 Q 65.86 -2.94 65.86 -3.51 L 65.86 -3.51 L 65.86 -9.95 Z M 81.16 -9.95 L 81.16 0 L 78.6 0 L 75.31 -5.76 L 75.31 0 L 72.75 0 L 72.75 -9.95 L 75.31 -9.95 L 78.6 -4.2 L 78.6 -9.95 L 81.16 -9.95 Z M 88.76 0 L 86.57 0 L 86.58 -2.06 L 88.76 -2.06 Q 89.41 -2.06 89.86 -2.37 Q 90.3 -2.67 90.53 -3.27 Q 90.77 -3.88 90.77 -4.81 L 90.77 -4.81 L 90.77 -5.15 Q 90.77 -6.07 90.54 -6.68 Q 90.31 -7.28 89.85 -7.58 Q 89.4 -7.88 88.72 -7.88 L 88.72 -7.88 L 86.53 -7.88 L 86.53 -9.95 L 88.72 -9.95 Q 90.09 -9.95 91.14 -9.34 Q 92.19 -8.72 92.78 -7.64 Q 93.38 -6.56 93.38 -5.14 L 93.38 -5.14 L 93.38 -4.81 Q 93.38 -3.4 92.78 -2.31 Q 92.19 -1.22 91.15 -0.61 Q 90.11 0 88.76 0 L 88.76 0 Z M 88.05 -9.95 L 88.05 0 L 85.48 0 L 85.48 -9.95 L 88.05 -9.95 Z M 104.36 -2.06 L 104.36 0 L 99.1 0 L 99.1 -2.06 L 104.36 -2.06 Z M 100.01 -9.95 L 100.01 0 L 97.44 0 L 97.44 -9.95 L 100.01 -9.95 Z M 103.68 -6.1 L 103.68 -4.11 L 99.1 -4.11 L 99.1 -6.1 L 103.68 -6.1 Z M 104.38 -9.95 L 104.38 -7.88 L 99.1 -7.88 L 99.1 -9.95 L 104.38 -9.95 Z M 119.65 -2.68 L 119.65 -2.68 Q 119.65 -2.95 119.54 -3.15 Q 119.42 -3.36 119.07 -3.56 Q 118.72 -3.76 118 -4 L 118 -4 Q 117.36 -4.22 116.75 -4.5 Q 116.14 -4.78 115.66 -5.16 Q 115.17 -5.54 114.88 -6.05 Q 114.6 -6.57 114.6 -7.26 L 114.6 -7.26 Q 114.6 -8.13 115.1 -8.77 Q 115.61 -9.4 116.48 -9.74 Q 117.36 -10.09 118.47 -10.09 L 118.47 -10.09 Q 119.57 -10.09 120.42 -9.72 Q 121.26 -9.34 121.74 -8.65 Q 122.23 -7.95 122.23 -6.98 L 122.23 -6.98 L 119.67 -6.98 Q 119.67 -7.3 119.54 -7.55 Q 119.4 -7.79 119.13 -7.93 Q 118.85 -8.07 118.42 -8.07 L 118.42 -8.07 Q 118 -8.07 117.72 -7.95 Q 117.43 -7.83 117.29 -7.65 Q 117.15 -7.46 117.15 -7.23 L 117.15 -7.23 Q 117.15 -6.96 117.37 -6.76 Q 117.59 -6.56 117.98 -6.39 Q 118.37 -6.22 118.88 -6.05 L 118.88 -6.05 Q 119.95 -5.71 120.69 -5.25 Q 121.43 -4.8 121.82 -4.17 Q 122.21 -3.55 122.21 -2.69 L 122.21 -2.69 Q 122.21 -1.78 121.76 -1.15 Q 121.3 -0.52 120.47 -0.19 Q 119.63 0.14 118.51 0.14 L 118.51 0.14 Q 117.73 0.14 116.98 -0.06 Q 116.23 -0.26 115.63 -0.68 Q 115.02 -1.09 114.66 -1.75 Q 114.3 -2.4 114.3 -3.31 L 114.3 -3.31 L 116.87 -3.31 Q 116.87 -2.9 116.97 -2.63 Q 117.07 -2.35 117.28 -2.18 Q 117.48 -2.02 117.79 -1.94 Q 118.1 -1.87 118.51 -1.87 L 118.51 -1.87 Q 118.93 -1.87 119.18 -1.99 Q 119.43 -2.11 119.54 -2.29 Q 119.65 -2.47 119.65 -2.68 Z M 131.64 -9.95 L 134.2 -9.95 L 134.2 -3.51 Q 134.2 -2.33 133.71 -1.52 Q 133.22 -0.7 132.34 -0.28 Q 131.45 0.14 130.26 0.14 L 130.26 0.14 Q 129.07 0.14 128.18 -0.28 Q 127.28 -0.7 126.78 -1.52 Q 126.28 -2.33 126.28 -3.51 L 126.28 -3.51 L 126.28 -9.95 L 128.86 -9.95 L 128.86 -3.51 Q 128.86 -2.94 129.01 -2.59 Q 129.17 -2.24 129.49 -2.08 Q 129.8 -1.93 130.26 -1.93 L 130.26 -1.93 Q 130.72 -1.93 131.03 -2.08 Q 131.33 -2.24 131.48 -2.59 Q 131.64 -2.94 131.64 -3.51 L 131.64 -3.51 L 131.64 -9.95 Z M 142.66 -7.55 L 140.33 0 L 137.58 0 L 141.23 -9.95 L 142.97 -9.95 L 142.66 -7.55 Z M 144.55 0 L 142.21 -7.55 L 141.88 -9.95 L 143.64 -9.95 L 147.31 0 L 144.55 0 Z M 144.52 -3.74 L 144.52 -1.67 L 139.42 -1.67 L 139.42 -3.74 L 144.52 -3.74 Z M 159.86 -9.95 L 159.86 0 L 157.29 0 L 157.29 -9.95 L 159.86 -9.95 Z M 163.62 -5.9 L 163.62 -3.83 L 159.14 -3.83 L 159.14 -5.9 L 163.62 -5.9 Z M 163.99 -9.95 L 163.99 -7.88 L 159.14 -7.88 L 159.14 -9.95 L 163.99 -9.95 Z M 174.75 -2.06 L 174.75 0 L 169.49 0 L 169.49 -2.06 L 174.75 -2.06 Z M 170.4 -9.95 L 170.4 0 L 167.83 0 L 167.83 -9.95 L 170.4 -9.95 Z M 174.07 -6.1 L 174.07 -4.11 L 169.49 -4.11 L 169.49 -6.1 L 174.07 -6.1 Z M 174.77 -9.95 L 174.77 -7.88 L 169.49 -7.88 L 169.49 -9.95 L 174.77 -9.95 Z M 170.32 -10.42 L 171.68 -12.61 L 174.27 -12.61 L 172.33 -10.42 L 170.32 -10.42 Z M 180.84 -1.81 L 180.83 -0.25 Q 180.83 0.63 180.4 1.47 Q 179.97 2.32 179.37 2.85 L 179.37 2.85 L 178.13 2.28 Q 178.27 1.96 178.44 1.64 Q 178.61 1.31 178.74 0.9 Q 178.87 0.49 178.87 -0.09 L 178.87 -0.09 L 178.87 -1.81 L 180.84 -1.81 Z M 194.33 -9.95 L 194.33 0 L 191.76 0 L 191.76 -9.95 L 194.33 -9.95 Z M 198.1 -5.9 L 198.1 -3.83 L 193.61 -3.83 L 193.61 -5.9 L 198.1 -5.9 Z M 198.47 -9.95 L 198.47 -7.88 L 193.61 -7.88 L 193.61 -9.95 L 198.47 -9.95 Z M 210.84 -5.12 L 210.84 -4.83 Q 210.84 -3.28 210.27 -2.17 Q 209.71 -1.06 208.72 -0.46 Q 207.73 0.14 206.45 0.14 L 206.45 0.14 Q 205.16 0.14 204.16 -0.46 Q 203.16 -1.06 202.6 -2.17 Q 202.03 -3.28 202.03 -4.83 L 202.03 -4.83 L 202.03 -5.12 Q 202.03 -6.67 202.59 -7.78 Q 203.16 -8.89 204.15 -9.49 Q 205.14 -10.09 206.44 -10.09 L 206.44 -10.09 Q 207.71 -10.09 208.71 -9.49 Q 209.7 -8.89 210.27 -7.78 Q 210.84 -6.67 210.84 -5.12 L 210.84 -5.12 Z M 208.23 -4.83 L 208.23 -5.13 Q 208.23 -6.08 208.03 -6.71 Q 207.82 -7.35 207.41 -7.67 Q 207.01 -7.99 206.44 -7.99 L 206.44 -7.99 Q 205.83 -7.99 205.44 -7.67 Q 205.04 -7.35 204.84 -6.71 Q 204.65 -6.08 204.65 -5.13 L 204.65 -5.13 L 204.65 -4.83 Q 204.65 -3.9 204.85 -3.26 Q 205.05 -2.62 205.45 -2.29 Q 205.85 -1.96 206.45 -1.96 L 206.45 -1.96 Q 207.02 -1.96 207.42 -2.29 Q 207.82 -2.62 208.03 -3.26 Q 208.23 -3.9 208.23 -4.83 L 208.23 -4.83 Z M 214.91 -9.95 L 218.89 -9.95 Q 220.06 -9.95 220.91 -9.61 Q 221.77 -9.26 222.23 -8.59 Q 222.7 -7.92 222.7 -6.93 L 222.7 -6.93 Q 222.7 -6.04 222.44 -5.47 Q 222.17 -4.89 221.7 -4.52 Q 221.24 -4.16 220.61 -3.9 L 220.61 -3.9 L 219.77 -3.38 L 216.52 -3.38 L 216.51 -5.46 L 218.86 -5.46 Q 219.29 -5.46 219.57 -5.59 Q 219.86 -5.73 220 -6 Q 220.14 -6.27 220.14 -6.67 L 220.14 -6.67 Q 220.14 -7.24 219.82 -7.56 Q 219.51 -7.88 218.89 -7.88 L 218.89 -7.88 L 217.48 -7.88 L 217.48 0 L 214.91 0 L 214.91 -9.95 Z M 220.28 0 L 218.12 -4.38 L 220.84 -4.4 L 223.03 -0.11 L 223.03 0 L 220.28 0 Z M 231.82 -9.95 L 231.82 0 L 229.25 0 L 229.25 -9.95 L 231.82 -9.95 Z M 234.76 -9.95 L 234.76 -7.88 L 226.38 -7.88 L 226.38 -9.95 L 234.76 -9.95 Z M 242.04 -7.55 L 239.71 0 L 236.95 0 L 240.6 -9.95 L 242.34 -9.95 L 242.04 -7.55 Z M 243.92 0 L 241.59 -7.55 L 241.25 -9.95 L 243.01 -9.95 L 246.68 0 L 243.92 0 Z M 243.9 -3.74 L 243.9 -1.67 L 238.79 -1.67 L 238.79 -3.74 L 243.9 -3.74 Z M 256.91 -2.06 L 256.91 0 L 251.91 0 L 251.91 -2.06 L 256.91 -2.06 Z M 252.81 -9.95 L 252.81 0 L 250.25 0 L 250.25 -9.95 L 252.81 -9.95 Z M 267.69 -2.06 L 267.69 0 L 262.44 0 L 262.44 -2.06 L 267.69 -2.06 Z M 263.35 -9.95 L 263.35 0 L 260.77 0 L 260.77 -9.95 L 263.35 -9.95 Z M 267.02 -6.1 L 267.02 -4.11 L 262.44 -4.11 L 262.44 -6.1 L 267.02 -6.1 Z M 267.71 -9.95 L 267.71 -7.88 L 262.44 -7.88 L 262.44 -9.95 L 267.71 -9.95 Z M 277.11 -3.42 L 279.67 -3.42 Q 279.63 -2.37 279.11 -1.57 Q 278.59 -0.77 277.67 -0.31 Q 276.75 0.14 275.51 0.14 L 275.51 0.14 Q 274.16 0.14 273.2 -0.45 Q 272.25 -1.05 271.74 -2.15 Q 271.24 -3.25 271.24 -4.77 L 271.24 -4.77 L 271.24 -5.17 Q 271.24 -6.71 271.77 -7.81 Q 272.29 -8.91 273.24 -9.5 Q 274.19 -10.1 275.47 -10.1 L 275.47 -10.1 Q 276.79 -10.1 277.7 -9.62 Q 278.6 -9.14 279.1 -8.31 Q 279.59 -7.49 279.68 -6.45 L 279.68 -6.45 L 277.13 -6.45 Q 277.11 -7.23 276.75 -7.61 Q 276.39 -7.99 275.47 -7.99 L 275.47 -7.99 Q 274.91 -7.99 274.55 -7.73 Q 274.19 -7.46 274.02 -6.85 Q 273.84 -6.24 273.84 -5.19 L 273.84 -5.19 L 273.84 -4.77 Q 273.84 -3.71 274 -3.1 Q 274.15 -2.49 274.52 -2.23 Q 274.88 -1.97 275.51 -1.97 L 275.51 -1.97 Q 276.02 -1.97 276.37 -2.12 Q 276.73 -2.27 276.92 -2.59 Q 277.11 -2.91 277.11 -3.42 L 277.11 -3.42 Z M 274.6 -0.1 L 276.47 -0.1 L 276.39 0.32 Q 276.76 0.39 277.09 0.65 Q 277.41 0.92 277.41 1.5 L 277.41 1.5 Q 277.41 2.3 276.74 2.79 Q 276.08 3.27 274.8 3.27 L 274.8 3.27 L 274.75 1.85 Q 274.91 1.85 275.03 1.8 Q 275.14 1.76 275.21 1.65 Q 275.27 1.54 275.27 1.37 L 275.27 1.37 Q 275.27 1.13 275.07 1.04 Q 274.86 0.95 274.38 0.92 L 274.38 0.92 L 274.6 -0.1 Z M 287.95 -7.55 L 285.62 0 L 282.87 0 L 286.52 -9.95 L 288.25 -9.95 L 287.95 -7.55 Z M 289.84 0 L 287.5 -7.55 L 287.17 -9.95 L 288.92 -9.95 L 292.6 0 L 289.84 0 Z M 289.81 -3.74 L 289.81 -1.67 L 284.71 -1.67 L 284.71 -3.74 L 289.81 -3.74 Z M 307.64 -2.68 L 307.64 -2.68 Q 307.64 -2.95 307.53 -3.15 Q 307.42 -3.36 307.06 -3.56 Q 306.71 -3.76 305.99 -4 L 305.99 -4 Q 305.35 -4.22 304.74 -4.5 Q 304.13 -4.78 303.65 -5.16 Q 303.16 -5.54 302.88 -6.05 Q 302.59 -6.57 302.59 -7.26 L 302.59 -7.26 Q 302.59 -8.13 303.1 -8.77 Q 303.6 -9.4 304.48 -9.74 Q 305.35 -10.09 306.47 -10.09 L 306.47 -10.09 Q 307.57 -10.09 308.41 -9.72 Q 309.25 -9.34 309.74 -8.65 Q 310.22 -7.95 310.22 -6.98 L 310.22 -6.98 L 307.66 -6.98 Q 307.66 -7.3 307.53 -7.55 Q 307.4 -7.79 307.12 -7.93 Q 306.84 -8.07 306.41 -8.07 L 306.41 -8.07 Q 305.99 -8.07 305.71 -7.95 Q 305.43 -7.83 305.29 -7.65 Q 305.15 -7.46 305.15 -7.23 L 305.15 -7.23 Q 305.15 -6.96 305.37 -6.76 Q 305.58 -6.56 305.97 -6.39 Q 306.36 -6.22 306.88 -6.05 L 306.88 -6.05 Q 307.94 -5.71 308.68 -5.25 Q 309.43 -4.8 309.82 -4.17 Q 310.2 -3.55 310.2 -2.69 L 310.2 -2.69 Q 310.2 -1.78 309.75 -1.15 Q 309.3 -0.52 308.46 -0.19 Q 307.63 0.14 306.5 0.14 L 306.5 0.14 Q 305.72 0.14 304.97 -0.06 Q 304.22 -0.26 303.62 -0.68 Q 303.01 -1.09 302.65 -1.75 Q 302.3 -2.4 302.3 -3.31 L 302.3 -3.31 L 304.87 -3.31 Q 304.87 -2.9 304.97 -2.63 Q 305.06 -2.35 305.27 -2.18 Q 305.47 -2.02 305.78 -1.94 Q 306.09 -1.87 306.5 -1.87 L 306.5 -1.87 Q 306.92 -1.87 307.17 -1.99 Q 307.42 -2.11 307.53 -2.29 Q 307.64 -2.47 307.64 -2.68 Z M 319.63 -9.95 L 322.2 -9.95 L 322.2 -3.51 Q 322.2 -2.33 321.71 -1.52 Q 321.22 -0.7 320.33 -0.28 Q 319.45 0.14 318.25 0.14 L 318.25 0.14 Q 317.07 0.14 316.17 -0.28 Q 315.27 -0.7 314.77 -1.52 Q 314.27 -2.33 314.27 -3.51 L 314.27 -3.51 L 314.27 -9.95 L 316.85 -9.95 L 316.85 -3.51 Q 316.85 -2.94 317.01 -2.59 Q 317.16 -2.24 317.48 -2.08 Q 317.79 -1.93 318.25 -1.93 L 318.25 -1.93 Q 318.72 -1.93 319.02 -2.08 Q 319.32 -2.24 319.48 -2.59 Q 319.63 -2.94 319.63 -3.51 L 319.63 -3.51 L 319.63 -9.95 Z M 330.66 -7.55 L 328.33 0 L 325.57 0 L 329.22 -9.95 L 330.96 -9.95 L 330.66 -7.55 Z M 332.54 0 L 330.21 -7.55 L 329.87 -9.95 L 331.63 -9.95 L 335.3 0 L 332.54 0 Z M 332.52 -3.74 L 332.52 -1.67 L 327.41 -1.67 L 327.41 -3.74 L 332.52 -3.74 Z M 346.56 -9.95 L 348.64 -9.95 L 350.71 -3.38 L 352.78 -9.95 L 354.86 -9.95 L 351.56 0 L 349.87 0 L 346.56 -9.95 Z M 345.28 -9.95 L 347.45 -9.95 L 347.85 -1.91 L 347.85 0 L 345.28 0 L 345.28 -9.95 Z M 353.98 -9.95 L 356.15 -9.95 L 356.15 0 L 353.57 0 L 353.57 -1.91 L 353.98 -9.95 Z M 363.2 -9.95 L 363.2 0 L 360.64 0 L 360.64 -9.95 L 363.2 -9.95 Z M 372.74 -2.68 L 372.74 -2.68 Q 372.74 -2.95 372.63 -3.15 Q 372.51 -3.36 372.16 -3.56 Q 371.81 -3.76 371.09 -4 L 371.09 -4 Q 370.45 -4.22 369.84 -4.5 Q 369.23 -4.78 368.75 -5.16 Q 368.26 -5.54 367.97 -6.05 Q 367.69 -6.57 367.69 -7.26 L 367.69 -7.26 Q 367.69 -8.13 368.19 -8.77 Q 368.7 -9.4 369.57 -9.74 Q 370.45 -10.09 371.56 -10.09 L 371.56 -10.09 Q 372.66 -10.09 373.51 -9.72 Q 374.35 -9.34 374.83 -8.65 Q 375.32 -7.95 375.32 -6.98 L 375.32 -6.98 L 372.76 -6.98 Q 372.76 -7.3 372.63 -7.55 Q 372.49 -7.79 372.22 -7.93 Q 371.94 -8.07 371.51 -8.07 L 371.51 -8.07 Q 371.09 -8.07 370.81 -7.95 Q 370.52 -7.83 370.38 -7.65 Q 370.24 -7.46 370.24 -7.23 L 370.24 -7.23 Q 370.24 -6.96 370.46 -6.76 Q 370.68 -6.56 371.07 -6.39 Q 371.46 -6.22 371.97 -6.05 L 371.97 -6.05 Q 373.04 -5.71 373.78 -5.25 Q 374.52 -4.8 374.91 -4.17 Q 375.3 -3.55 375.3 -2.69 L 375.3 -2.69 Q 375.3 -1.78 374.85 -1.15 Q 374.39 -0.52 373.56 -0.19 Q 372.73 0.14 371.6 0.14 L 371.6 0.14 Q 370.82 0.14 370.07 -0.06 Q 369.32 -0.26 368.72 -0.68 Q 368.11 -1.09 367.75 -1.75 Q 367.39 -2.4 367.39 -3.31 L 367.39 -3.31 L 369.96 -3.31 Q 369.96 -2.9 370.06 -2.63 Q 370.16 -2.35 370.37 -2.18 Q 370.57 -2.02 370.88 -1.94 Q 371.19 -1.87 371.6 -1.87 L 371.6 -1.87 Q 372.02 -1.87 372.27 -1.99 Q 372.52 -2.11 372.63 -2.29 Q 372.74 -2.47 372.74 -2.68 Z M 384.46 -2.68 L 384.46 -2.68 Q 384.46 -2.95 384.35 -3.15 Q 384.24 -3.36 383.89 -3.56 Q 383.53 -3.76 382.82 -4 L 382.82 -4 Q 382.17 -4.22 381.56 -4.5 Q 380.96 -4.78 380.47 -5.16 Q 379.99 -5.54 379.7 -6.05 Q 379.41 -6.57 379.41 -7.26 L 379.41 -7.26 Q 379.41 -8.13 379.92 -8.77 Q 380.42 -9.4 381.3 -9.74 Q 382.17 -10.09 383.29 -10.09 L 383.29 -10.09 Q 384.39 -10.09 385.23 -9.72 Q 386.08 -9.34 386.56 -8.65 Q 387.04 -7.95 387.04 -6.98 L 387.04 -6.98 L 384.48 -6.98 Q 384.48 -7.3 384.35 -7.55 Q 384.22 -7.79 383.94 -7.93 Q 383.66 -8.07 383.23 -8.07 L 383.23 -8.07 Q 382.82 -8.07 382.53 -7.95 Q 382.25 -7.83 382.11 -7.65 Q 381.97 -7.46 381.97 -7.23 L 381.97 -7.23 Q 381.97 -6.96 382.19 -6.76 Q 382.41 -6.56 382.79 -6.39 Q 383.18 -6.22 383.7 -6.05 L 383.7 -6.05 Q 384.76 -5.71 385.51 -5.25 Q 386.25 -4.8 386.64 -4.17 Q 387.03 -3.55 387.03 -2.69 L 387.03 -2.69 Q 387.03 -1.78 386.57 -1.15 Q 386.12 -0.52 385.28 -0.19 Q 384.45 0.14 383.32 0.14 L 383.32 0.14 Q 382.54 0.14 381.79 -0.06 Q 381.04 -0.26 380.44 -0.68 Q 379.84 -1.09 379.48 -1.75 Q 379.12 -2.4 379.12 -3.31 L 379.12 -3.31 L 381.69 -3.31 Q 381.69 -2.9 381.79 -2.63 Q 381.89 -2.35 382.09 -2.18 Q 382.3 -2.02 382.6 -1.94 Q 382.91 -1.87 383.32 -1.87 L 383.32 -1.87 Q 383.75 -1.87 383.99 -1.99 Q 384.24 -2.11 384.35 -2.29 Q 384.46 -2.47 384.46 -2.68 Z M 395.46 -7.55 L 393.12 0 L 390.37 0 L 394.02 -9.95 L 395.76 -9.95 L 395.46 -7.55 Z M 397.34 0 L 395 -7.55 L 394.67 -9.95 L 396.43 -9.95 L 400.1 0 L 397.34 0 Z M 397.31 -3.74 L 397.31 -1.67 L 392.21 -1.67 L 392.21 -3.74 L 397.31 -3.74 Z M 396.57 -12.67 L 397.91 -12.6 Q 397.91 -12.09 397.7 -11.65 Q 397.5 -11.2 397.14 -10.93 Q 396.78 -10.66 396.3 -10.66 L 396.3 -10.66 Q 395.99 -10.66 395.75 -10.74 Q 395.51 -10.82 395.3 -10.93 Q 395.09 -11.04 394.87 -11.12 Q 394.66 -11.2 394.4 -11.2 L 394.4 -11.2 Q 394.19 -11.2 394.05 -11.07 Q 393.9 -10.93 393.9 -10.63 L 393.9 -10.63 L 392.55 -10.71 Q 392.55 -11.2 392.75 -11.64 Q 392.96 -12.08 393.32 -12.36 Q 393.68 -12.64 394.15 -12.64 L 394.15 -12.64 Q 394.41 -12.64 394.65 -12.56 Q 394.89 -12.48 395.12 -12.37 Q 395.35 -12.27 395.57 -12.19 Q 395.8 -12.11 396.05 -12.11 L 396.05 -12.11 Q 396.26 -12.11 396.42 -12.24 Q 396.57 -12.37 396.57 -12.67 L 396.57 -12.67 Z M 412.2 -5.12 L 412.2 -4.83 Q 412.2 -3.28 411.64 -2.17 Q 411.08 -1.06 410.08 -0.46 Q 409.09 0.14 407.81 0.14 L 407.81 0.14 Q 406.52 0.14 405.52 -0.46 Q 404.53 -1.06 403.96 -2.17 Q 403.4 -3.28 403.4 -4.83 L 403.4 -4.83 L 403.4 -5.12 Q 403.4 -6.67 403.96 -7.78 Q 404.52 -8.89 405.51 -9.49 Q 406.51 -10.09 407.8 -10.09 L 407.8 -10.09 Q 409.08 -10.09 410.07 -9.49 Q 411.07 -8.89 411.64 -7.78 Q 412.2 -6.67 412.2 -5.12 L 412.2 -5.12 Z M 409.6 -4.83 L 409.6 -5.13 Q 409.6 -6.08 409.39 -6.71 Q 409.18 -7.35 408.78 -7.67 Q 408.37 -7.99 407.8 -7.99 L 407.8 -7.99 Q 407.2 -7.99 406.8 -7.67 Q 406.41 -7.35 406.21 -6.71 Q 406.01 -6.08 406.01 -5.13 L 406.01 -5.13 L 406.01 -4.83 Q 406.01 -3.9 406.21 -3.26 Q 406.41 -2.62 406.81 -2.29 Q 407.21 -1.96 407.81 -1.96 L 407.81 -1.96 Q 408.39 -1.96 408.79 -2.29 Q 409.19 -2.62 409.39 -3.26 Q 409.6 -3.9 409.6 -4.83 L 409.6 -4.83 Z" stroke-linecap="round" />
</g>
</g>
</g>
</svg>